<?xml version="1.0" standalone="no"?>
<svg xmlns="http://www.w3.org/2000/svg" viewBox="0 0 106 61" width="106" height="61"><g fill="#3B3A3C" color="#3B3A3C" transform="translate(35.288 0) scale(0.3731344) "><svg width="93.8" height="85.1" x="0.0" y="0.0" viewBox="0 0 93.8 85.1"><title></title><path d="M52.1,7.45a2.22,2.22,0,0,0-2.2,2.2v5.5c-15.2.4-23.7,3.3-24.1,3.4a2.73,2.73,0,0,0-1.2.9c-1.2,1.4-6.4,7.9-11.9,20.4H10a6.91,6.91,0,0,0-6.9,6.9v.4a6.91,6.91,0,0,0,6.9,6.9h.3v26a8.07,8.07,0,0,0,8,8.1H24.6a8.22,8.22,0,0,0,8.2-8.1h17v10.3a2.2,2.2,0,0,0,4.4,0V9.75A2.22,2.22,0,0,0,52.1,7.45Z" transform="translate(-3.1 -7.45)"></path><path d="M76.7,29.85a20.2,20.2,0,1,0,20.2,20.2A20.2,20.2,0,0,0,76.7,29.85Zm0,35.4a15.2,15.2,0,1,1,15.2-15.2,15.2,15.2,0,0,1-15.2,15.2Z" transform="translate(-3.1 -7.45)"></path><path d="M82.1,45.05H80.86v-3.5c0-.28-.59-.52-1.32-.52s-1.32.23-1.32.52v3.5H75.57v-3.5c0-.28-.59-.52-1.32-.52s-1.32.23-1.32.52v3.5H71.29a2.17,2.17,0,0,0-2.16,2.17v3.67a7.56,7.56,0,0,0,6.79,7.51,8.34,8.34,0,0,0,2,0,7.74,7.74,0,0,0,6.38-7.68v-3.5A2.17,2.17,0,0,0,82.13,45Zm-.54,5.84a4.91,4.91,0,0,1-9.82,0h0V47.71h9.82Z" transform="translate(-3.1 -7.45)"></path></svg></g><line x1="36.337999999999994" y1="37.75373134328358" x2="69.238" y2="37.75373134328358" stroke="#8DC63F" stroke-linecap="round"></line><path fill="#8DC63F" fill-rule="nonzero" d="M4.68 17.21L4.68 17.21Q3.38 17.21 2.33 16.56Q1.27 15.91 0.64 14.82Q0 13.73 0 12.38L0 12.38L0 4.78Q0 3.48 0.64 2.39Q1.27 1.30 2.34 0.65Q3.41 0 4.68 0L4.68 0Q6 0 7.07 0.64Q8.14 1.27 8.76 2.35Q9.38 3.43 9.38 4.78L9.38 4.78L9.38 5.88Q9.38 5.98 9.26 5.98L9.26 5.98L6.58 5.98Q6.48 5.98 6.48 5.88L6.48 5.88L6.48 4.97Q6.48 4.06 5.96 3.46Q5.45 2.86 4.68 2.86L4.68 2.86Q3.98 2.86 3.44 3.43Q2.90 4.01 2.90 4.78L2.90 4.78L2.90 12.38Q2.90 13.18 3.43 13.74Q3.96 14.30 4.68 14.30L4.68 14.30Q5.45 14.30 5.96 13.75Q6.48 13.20 6.48 12.38L6.48 12.38L6.48 11.21L4.80 11.21Q4.68 11.21 4.68 11.09L4.68 11.09L4.68 8.40Q4.68 8.28 4.80 8.28L4.80 8.28L9.29 8.28Q9.38 8.28 9.38 8.40L9.38 8.40L9.38 12.38Q9.38 13.73 8.75 14.82Q8.11 15.91 7.06 16.56Q6 17.21 4.68 17.21ZM13.90 16.97L11.18 16.97Q11.09 16.97 11.09 16.85L11.09 16.85L11.14 0.36Q11.14 0.26 11.23 0.26L11.23 0.26L16.08 0.26Q17.38 0.26 18.47 0.90Q19.56 1.54 20.21 2.60Q20.86 3.67 20.86 5.02L20.86 5.02Q20.86 5.90 20.59 6.61Q20.33 7.32 19.97 7.81Q19.61 8.30 19.32 8.54L19.32 8.54Q20.62 9.98 20.62 11.93L20.62 11.93L20.64 16.85Q20.64 16.97 20.52 16.97L20.52 16.97L17.81 16.97Q17.71 16.97 17.71 16.90L17.71 16.90L17.71 11.93Q17.71 11.06 17.10 10.43Q16.49 9.79 15.60 9.79L15.60 9.79L14.02 9.79L13.99 16.85Q13.99 16.97 13.90 16.97L13.90 16.97ZM14.02 3.14L14.02 6.91L16.08 6.91Q16.82 6.91 17.40 6.36Q17.98 5.81 17.98 5.02L17.98 5.02Q17.98 4.25 17.41 3.70Q16.85 3.14 16.08 3.14L16.08 3.14L14.02 3.14ZM30.50 16.97L22.75 16.97Q22.66 16.97 22.66 16.85L22.66 16.85L22.68 0.36Q22.68 0.26 22.78 0.26L22.78 0.26L30.48 0.26Q30.58 0.26 30.58 0.38L30.58 0.38L30.58 3.07Q30.58 3.17 30.48 3.17L30.48 3.17L25.56 3.17L25.56 6.91L30.48 6.91Q30.58 6.91 30.58 7.01L30.58 7.01L30.60 9.72Q30.60 9.82 30.50 9.82L30.50 9.82L25.56 9.82L25.56 14.02L30.50 14.02Q30.60 14.02 30.60 14.14L30.60 14.14L30.60 16.87Q30.60 16.97 30.50 16.97L30.50 16.97ZM40.58 16.97L32.83 16.97Q32.74 16.97 32.74 16.85L32.74 16.85L32.76 0.36Q32.76 0.26 32.86 0.26L32.86 0.26L40.56 0.26Q40.66 0.26 40.66 0.38L40.66 0.38L40.66 3.07Q40.66 3.17 40.56 3.17L40.56 3.17L35.64 3.17L35.64 6.91L40.56 6.91Q40.66 6.91 40.66 7.01L40.66 7.01L40.68 9.72Q40.68 9.82 40.58 9.82L40.58 9.82L35.64 9.82L35.64 14.02L40.58 14.02Q40.68 14.02 40.68 14.14L40.68 14.14L40.68 16.87Q40.68 16.97 40.58 16.97L40.58 16.97ZM45.43 16.97L43.03 16.97Q42.84 16.97 42.84 16.80L42.84 16.80L42.82 0.46Q42.82 0.26 43.01 0.26L43.01 0.26L45.17 0.26L49.22 9.72L49.10 0.46Q49.10 0.26 49.32 0.26L49.32 0.26L51.70 0.26Q51.84 0.26 51.84 0.46L51.84 0.46L51.86 16.82Q51.86 16.97 51.74 16.97L51.74 16.97L49.63 16.97L45.48 8.14L45.65 16.78Q45.65 16.97 45.43 16.97L45.43 16.97ZM58.03 17.21L58.03 17.21Q56.74 17.21 55.67 16.55Q54.60 15.89 53.96 14.80Q53.33 13.70 53.33 12.38L53.33 12.38L53.33 11.28Q53.33 11.16 53.45 11.16L53.45 11.16L56.14 11.16Q56.23 11.16 56.23 11.28L56.23 11.28L56.23 12.38Q56.23 13.18 56.76 13.74Q57.29 14.30 58.03 14.30L58.03 14.30Q58.78 14.30 59.30 13.73Q59.83 13.15 59.83 12.38L59.83 12.38Q59.83 11.50 58.68 10.85L58.68 10.85Q58.30 10.63 57.48 10.18Q56.66 9.72 55.94 9.31L55.94 9.31Q54.62 8.54 53.99 7.38Q53.35 6.22 53.35 4.75L53.35 4.75Q53.35 3.41 54 2.34Q54.65 1.27 55.72 0.65Q56.78 0.02 58.03 0.02L58.03 0.02Q59.30 0.02 60.37 0.66Q61.44 1.30 62.08 2.36Q62.71 3.43 62.71 4.75L62.71 4.75L62.71 6.72Q62.71 6.82 62.62 6.82L62.62 6.82L59.93 6.82Q59.83 6.82 59.83 6.72L59.83 6.72L59.81 4.75Q59.81 3.91 59.28 3.38Q58.75 2.86 58.03 2.86L58.03 2.86Q57.29 2.86 56.76 3.42Q56.23 3.98 56.23 4.75L56.23 4.75Q56.23 5.54 56.57 6.07Q56.90 6.60 57.79 7.08L57.79 7.08Q57.91 7.15 58.26 7.33Q58.61 7.51 59.02 7.74Q59.42 7.97 59.75 8.14Q60.07 8.30 60.14 8.35L60.14 8.35Q61.34 9.02 62.04 10.00Q62.74 10.97 62.74 12.38L62.74 12.38Q62.74 13.75 62.10 14.84Q61.46 15.94 60.40 16.57Q59.33 17.21 58.03 17.21ZM67.22 16.97L64.51 16.97Q64.42 16.97 64.42 16.85L64.42 16.85L64.44 0.36Q64.44 0.26 64.56 0.26L64.56 0.26L67.22 0.26Q67.34 0.26 67.34 0.36L67.34 0.36L67.32 6.89L70.92 6.89L70.92 0.36Q70.92 0.26 71.02 0.26L71.02 0.26L73.68 0.26Q73.80 0.26 73.80 0.36L73.80 0.36L73.85 16.85Q73.85 16.97 73.73 16.97L73.73 16.97L71.04 16.97Q70.92 16.97 70.92 16.85L70.92 16.85L70.92 9.79L67.32 9.79L67.32 16.85Q67.32 16.97 67.22 16.97L67.22 16.97ZM75 16.85L75 16.85L77.98 0.36Q78 0.26 78.10 0.26L78.10 0.26L81.58 0.26Q81.67 0.26 81.70 0.36L81.70 0.36L84.55 16.85Q84.58 16.97 84.46 16.97L84.46 16.97L81.79 16.97Q81.70 16.97 81.67 16.85L81.67 16.85L81.41 15.10L78.14 15.10L77.88 16.85Q77.86 16.97 77.76 16.97L77.76 16.97L75.10 16.97Q75 16.97 75 16.85ZM79.70 5.78L78.62 12.53L80.93 12.53L79.94 5.78L79.80 4.90L79.70 5.78ZM88.87 16.97L86.16 16.97Q86.06 16.97 86.06 16.85L86.06 16.85L86.11 0.36Q86.11 0.26 86.21 0.26L86.21 0.26L91.06 0.26Q92.35 0.26 93.44 0.90Q94.54 1.54 95.18 2.60Q95.83 3.67 95.83 5.02L95.83 5.02Q95.83 5.90 95.57 6.61Q95.30 7.32 94.94 7.81Q94.58 8.30 94.30 8.54L94.30 8.54Q95.59 9.98 95.59 11.93L95.59 11.93L95.62 16.85Q95.62 16.97 95.50 16.97L95.50 16.97L92.78 16.97Q92.69 16.97 92.69 16.90L92.69 16.90L92.69 11.93Q92.69 11.06 92.08 10.43Q91.46 9.79 90.58 9.79L90.58 9.79L88.99 9.79L88.97 16.85Q88.97 16.97 88.87 16.97L88.87 16.97ZM88.99 3.14L88.99 6.91L91.06 6.91Q91.80 6.91 92.38 6.36Q92.95 5.81 92.95 5.02L92.95 5.02Q92.95 4.25 92.39 3.70Q91.82 3.14 91.06 3.14L91.06 3.14L88.99 3.14ZM105.48 16.97L97.73 16.97Q97.63 16.97 97.63 16.85L97.63 16.85L97.66 0.36Q97.66 0.26 97.75 0.26L97.75 0.26L105.46 0.26Q105.55 0.26 105.55 0.38L105.55 0.38L105.55 3.07Q105.55 3.17 105.46 3.17L105.46 3.17L100.54 3.17L100.54 6.91L105.46 6.91Q105.55 6.91 105.55 7.01L105.55 7.01L105.58 9.72Q105.58 9.82 105.48 9.82L105.48 9.82L100.54 9.82L100.54 14.02L105.48 14.02Q105.58 14.02 105.58 14.14L105.58 14.14L105.58 16.87Q105.58 16.97 105.48 16.97L105.48 16.97Z" transform="translate(0, 43.754)"></path></svg>